<svg xmlns="http://www.w3.org/2000/svg" viewBox="0 0 811.98 814.92"><path d="M802.22,542.36,578.89,63.19C563.39,29.94,520.7,2.3,484,1.77L332.46-.45C295.78-1,253,25.74,237.43,58.94l-227,483.5C-5.16,575.64-3,628.85,15.22,660.68l54.91,95.9c18.23,31.84,63.15,57.88,99.83,57.88H630.51c36.68,0,82.68-25.4,102.21-56.44l62.16-98.77C814.41,628.21,817.72,575.6,802.22,542.36Zm-93.89,67.15-66.22,97.12c-10.34,15.15-33.79,27.55-52.13,27.55H211.33c-18.34,0-41.29-12.73-51-28.28l-59.78-95.66c-9.72-15.56-11-41.72-2.82-58.14L312.94,119.46c8.17-16.42,29.86-29.85,48.2-29.85h89.7c18.34,0,40,13.45,48.1,29.9L712.36,552.05C720.47,568.5,718.66,594.35,708.33,609.51Z" transform="translate(-0.01 0.46)"/></svg>